<svg xmlns="http://www.w3.org/2000/svg" viewBox="0 0 513.38 704.5">
    <defs>
        <style>
            .cls-1 {
                fill: #fe9898;
            }

            .cls-2,
            .cls-4,
            .cls-5 {
                fill: #fff;
            }

            .cls-3 {
                fill: #5a8fed;
            }

            .cls-4 {
                font-size: 48.27px;
                font-family: Cochin-Bold, Cochin;
                font-weight: 700;
            }

            .cls-5 {
                font-size: 48.27px;
                font-family: Helvetica;
            }
        </style>
    </defs>
    <g id="Layer_2" data-name="Layer 2">
        <g id="logo"><text />
            <path class="cls-1"
                d="M425.19,360.44c.46-1.79.8-2.3.75-3.28h0a3.32,3.32,0,0,0-.44-1.43L405.14,320.6a3.32,3.32,0,0,1-.35-2.41c9.33-39.94,5.8-68.28,3.12-88.85-3-22.82-3.44-32-10.13-36.5-19.23-13-60.7,20.85-64.35,23.9l-.28.21c-2,1.34-23.77,16-21.43,20.29.36.67,1.26.49,5.17,2.34,3.15,1.5,2.85,1.75,5.44,2.95s4.68,1.81,7.82,3.5a4.78,4.78,0,0,1,2.35,2.42,1.92,1.92,0,0,1,0,1.56c-.45.78-1.74.78-2.23.78-3.65,0-9.86-4.28-13-6.1-2.19-1.29-4.79-2.2-10-4-6.86-2.4-12.83-2.8-26.67-2.83-14.93,0-22.4-.05-27.26.45-9.54,1-24.11,2.31-40.52,9.83-6.13,2.81-22.64,10.38-34.41,21.16-1.38,1.26-6.56,6.1-7.45,5.36-.59-.5,1-3.27,1.49-4.17,5.39-9.51,15.91-15.64,20.11-18,17-9.67,19.74-9,20.41-12.06,1.61-7.4-13.34-16.57-30.54-27.12a118.57,118.57,0,0,0-20.78-9.76,47.83,47.83,0,0,0-14.11-3.11c-1.8-.1-5.76-.32-8.31.36-4.45,1.19-9.72,6.49-14,29.5A228.89,228.89,0,0,0,123.23,291a179.54,179.54,0,0,0,2.9,20.05c1.44,6.79,2,10.41,3.66,17.78,1.24,5.46,2.68,6.62.89,13.11-2.12,7.7-2.82,10.44-5.39,21.69-.37,1.64-1.64,7.32-2.65,14.66-1.19,8.56-1.41,15-1.79,26.67-.26,8-.39,12.08-.15,13.4.71,3.89,2.37,8.45,16.09,23.84,9.6,10.77,15.65,17.48,25.85,25.11a150.17,150.17,0,0,0,12.88,8.56,166,166,0,0,0,46.93,18.62c17.6,4.07,31.4,6.53,43.49,6.61,20.9.14,37.52-2,57.8-9,26.85-9.19,43.62-25.19,51.1-32.47,20-19.47,29.5-39.9,34.44-50.78a182,182,0,0,0,7.64-19.81s0,0,3.21-10.3c.31-1,.74-2.41,1.29-4.25,1.35-4.47,2-6.71,2.48-8.62.12-.53.48-2,1.09-4.61C425.06,361,425.12,360.72,425.19,360.44Z" />
            <circle cx="184.86" cy="370.34" r="16.86" />
            <circle class="cls-2" cx="503.74" cy="344.45" r="9.45" />
            <path
                d="M297,364.45a66,66,0,0,1,7-12.15,54.82,54.82,0,0,1,9-10,53.81,53.81,0,0,1,11.43-7.46c6.87-3.49,12.69-6.45,16.92-4a8,8,0,0,1,3.1,3.54,6,6,0,0,1-.11,2.8c-.72,2.52-3,3.81-5,4.86s-3.85,1.52-7.88,2.58c-3.75,1-3.88.85-5.67,1.47a37.84,37.84,0,0,0-6.31,3,58.51,58.51,0,0,0-7.18,5.05c-2.17,1.7-5,4-8.29,6.74l-5.14,4.41a1,1,0,0,1-1.85-.84Z" />
            <path
                d="M261.65,404.7c-.32-1,.51,1.52.75,2.07s6.58,11.94,15.83,12c9.73,0,18.53-12.51,17.36-19.14-.2-1.14-1.19-4.81.6-6.56a3.63,3.63,0,0,1,1.71-.89c2.19-.48,4.13,1.25,4.32,1.42,3.77,3.37,0,13.16-.22,13.78a28.41,28.41,0,0,1-8.27,11c-3.35,3-6.52,5.79-11.62,6.78-7.45,1.44-13.43-2.11-15-3.06a22.79,22.79,0,0,1-7.6-7.74c-.47,1.59-3.24,10.4-12.07,14.6-10.65,5.06-21.06-1.1-23.61-2.61-2-1.16-6.69-4-9.09-9.61-.53-1.25-2-4.85-.82-8.57a5,5,0,0,1,2.39-3.27c1.15-.53,3,.29,3.64,1.18s.92,2.57,1.42,6c1,6.57,7.51,10.93,14,11.92A17.6,17.6,0,0,0,252.09,417a20.19,20.19,0,0,0,3-7.52,13.82,13.82,0,0,0,.07-4.92c-.53-3.67-4.92-4.07-6.48-5.07-2.93-1.86-5.36-3-5.76-5.37a4.16,4.16,0,0,1,.18-2.07,5.57,5.57,0,0,1,1.34-1.34c1.69-1.18,3.24-.74,7.22-.82,1.77,0,3.11-.16,5.59-.38,2.75-.24,4.12-.36,4.62-.44.73-.13,1.58-.19,3.29-.32a3.39,3.39,0,0,1,2.2.32,2.61,2.61,0,0,1,.91,1,5.27,5.27,0,0,1,.31,2.88c-.4,2-2,3.05-3.51,4.49-1.31,1.23-4.67,3.05-3.4,7.26" />
            <path class="cls-3"
                d="M244.3,160.6l41.63,12.29,1.17.68,33.13,31.74a1.83,1.83,0,0,1,.09,2.54l-17.86,19.71a1.82,1.82,0,0,1-2.37.28L263.2,202.92a1.84,1.84,0,0,1-.6-.67L242.17,163.2A1.83,1.83,0,0,1,244.3,160.6Z" />
            <path class="cls-3"
                d="M415,322a.71.71,0,0,1-.21-.84,66.22,66.22,0,0,0,4.38-33.13.74.74,0,0,1,1.21-.65L461.1,322a1,1,0,0,1,.16.19,15.35,15.35,0,0,1-1.21,18c-4.87,5.59-13.69,6.72-20.3,2.18l-.06,0Z" />
            <text class="cls-4" transform="translate(61.09 211.4) rotate(-53.49)">A</text><text class="cls-4"
                transform="translate(85.85 178.91) rotate(-43.18)">R</text><text class="cls-4"
                transform="translate(117.3 150.94) rotate(-34.46)">I</text><text class="cls-4"
                transform="translate(139.55 135.69) rotate(-25.81)">A</text><text class="cls-4"
                transform="translate(176.44 118.34) rotate(-15.09)">N</text><text class="cls-4"
                transform="translate(220.08 107.24) rotate(-3.78)">N</text><text class="cls-4"
                transform="translate(265.15 105.11) rotate(7.09)">E</text><text class="cls-4"
                transform="matrix(0.97, 0.26, -0.26, 0.97, 306.15, 111.46)"> </text><text class="cls-4"
                transform="matrix(0.92, 0.39, -0.39, 0.92, 325.63, 116.33)">X</text><text class="cls-4"
                transform="matrix(0.85, 0.52, -0.52, 0.85, 364.86, 134)">I</text><text class="cls-4"
                transform="translate(387.96 148.08) rotate(39.75)">A</text><text class="cls-4"
                transform="matrix(0.64, 0.77, -0.77, 0.64, 419.04, 174.48)">N</text><text class="cls-4"
                transform="translate(447.32 209.6) rotate(61.43)">G</text><text class="cls-4"
                transform="matrix(0.35, 0.94, -0.94, 0.35, 467.97, 250.51)"> </text><text class="cls-5"
                transform="translate(41.08 493) rotate(50.31)">M</text><text class="cls-5"
                transform="translate(76.14 532.59) rotate(40.28)">e</text><text class="cls-5"
                transform="translate(106.55 557.17) rotate(31.74)">d</text><text class="cls-5"
                transform="matrix(0.91, 0.42, -0.42, 0.91, 139.88, 576.44)">i</text><text class="cls-5"
                transform="translate(160.28 585.74) rotate(18.37)">a</text><text class="cls-5"
                transform="translate(197.22 596.82) rotate(11.41)"> </text><text class="cls-5"
                transform="translate(222.24 601.77) rotate(3.63)">D</text><text class="cls-5"
                transform="matrix(0.99, -0.1, 0.1, 0.99, 269.57, 603.41)">e</text><text class="cls-5"
                transform="translate(308.27 598.49) rotate(-14.09)">s</text><text class="cls-5"
                transform="translate(342.62 588.82) rotate(-20.45)">i</text><text class="cls-5"
                transform="matrix(0.89, -0.46, 0.46, 0.89, 363.56, 580.78)">g</text><text class="cls-5"
                transform="matrix(0.81, -0.58, 0.58, 0.81, 397.91, 562.19)">n</text><text class="cls-5"
                transform="matrix(0.72, -0.7, 0.7, 0.72, 429.15, 538.72)">e</text><text class="cls-5"
                transform="translate(456.17 511.06) rotate(-51.3)">r</text><text class="cls-5"
                transform="translate(472.85 489.23) rotate(-57.01)"> </text>
            <circle class="cls-2" cx="9.45" cy="344.65" r="9.45" />
        </g>
    </g>
</svg>