<svg xmlns="http://www.w3.org/2000/svg" viewBox="0 0 260.02 331.49"><defs><style>.cls-1{fill:#fe9898;}.cls-2,.cls-4,.cls-5{fill:#fff;}.cls-3{fill:#5a8fed;}.cls-4{font-size:24.45px;font-family:Cochin-Bold, Cochin;font-weight:700;}.cls-5{font-size:24.45px;font-family:Helvetica;}</style></defs><g id="Layer_2" data-name="Layer 2"><g id="logo"><path class="cls-1" d="M215.35,182.51a6,6,0,0,0,.38-1.66h0a1.69,1.69,0,0,0-.23-.73q-5.15-8.9-10.31-17.78a1.75,1.75,0,0,1-.18-1.23c4.73-20.23,2.94-34.57,1.59-45-1.51-11.56-1.75-16.19-5.13-18.49-9.74-6.6-30.75,10.56-32.6,12.1l-.14.11c-1,.68-12,8.1-10.86,10.28.19.33.65.24,2.63,1.18,1.59.76,1.44.89,2.75,1.49s2.37.92,4,1.78a2.39,2.39,0,0,1,1.19,1.22,1,1,0,0,1,0,.8c-.23.39-.89.39-1.13.39-1.85,0-5-2.17-6.57-3.09a29.72,29.72,0,0,0-5.05-2c-3.48-1.22-6.5-1.42-13.51-1.43-7.56,0-11.35,0-13.8.22-4.84.51-12.22,1.17-20.53,5-3.1,1.43-11.46,5.26-17.43,10.72-.69.64-3.32,3.09-3.77,2.71-.3-.25.5-1.65.76-2.11,2.73-4.81,8.06-7.92,10.18-9.13,8.6-4.9,10-4.56,10.34-6.11.81-3.74-6.76-8.39-15.47-13.73a59.4,59.4,0,0,0-10.52-5,24.39,24.39,0,0,0-7.15-1.57,15.84,15.84,0,0,0-4.21.18c-2.25.6-4.92,3.29-7.09,14.94a116.13,116.13,0,0,0-1.06,30.78,92.87,92.87,0,0,0,1.47,10.16c.73,3.44,1,5.27,1.85,9,.63,2.76,1.36,3.35.46,6.64-1.08,3.89-1.43,5.28-2.73,11-.19.83-.84,3.71-1.35,7.43a117.73,117.73,0,0,0-.9,13.5,60,60,0,0,0-.08,6.79c.36,2,1.2,4.28,8.15,12.07,4.86,5.46,7.93,8.86,13.09,12.72A75.92,75.92,0,0,0,88.9,241a83.6,83.6,0,0,0,23.76,9.44c8.92,2.06,15.91,3.31,22,3.35A82.31,82.31,0,0,0,164,249.21a68.18,68.18,0,0,0,25.88-16.45A81.22,81.22,0,0,0,207.29,207a92.48,92.48,0,0,0,3.87-10l1.62-5.22c.16-.51.38-1.22.66-2.15.68-2.27,1-3.4,1.25-4.37.07-.26.24-1,.56-2.33C215.28,182.8,215.31,182.65,215.35,182.51Z"/><circle cx="93.63" cy="187.53" r="8.54"/><circle class="cls-2" cx="255.13" cy="174.42" r="4.79"/><path d="M150.43,184.55a33.31,33.31,0,0,1,3.54-6.16,26.48,26.48,0,0,1,10.32-8.83c3.48-1.76,6.43-3.26,8.58-2a4.1,4.1,0,0,1,1.57,1.8,3.15,3.15,0,0,1-.06,1.41,4.47,4.47,0,0,1-2.52,2.46,18.05,18.05,0,0,1-4,1.31c-1.9.5-2,.43-2.87.75a18.46,18.46,0,0,0-3.2,1.5,28.94,28.94,0,0,0-3.63,2.56c-1.11.85-2.54,2-4.2,3.41L151.36,185a.53.53,0,0,1-.66.17A.52.52,0,0,1,150.43,184.55Z"/><path d="M132.52,204.93c-.16-.51.26.77.38,1s3.33,6,8,6.06c4.92,0,9.38-6.34,8.79-9.69-.1-.58-.6-2.44.3-3.32a1.82,1.82,0,0,1,.87-.46,2.77,2.77,0,0,1,2.19.72c1.91,1.71,0,6.67-.12,7a14.32,14.32,0,0,1-4.19,5.58c-1.69,1.51-3.3,2.94-5.88,3.44a10.8,10.8,0,0,1-7.58-1.55,11.54,11.54,0,0,1-3.85-3.92,12.14,12.14,0,0,1-6.11,7.39c-5.4,2.57-10.67-.56-12-1.32a10.65,10.65,0,0,1-4.6-4.87,6.22,6.22,0,0,1-.42-4.33,2.5,2.5,0,0,1,1.21-1.66,1.8,1.8,0,0,1,1.84.59,8.36,8.36,0,0,1,.72,3c.49,3.33,3.81,5.53,7.1,6a8.89,8.89,0,0,0,8.45-3.51,10.2,10.2,0,0,0,1.51-3.81,7.21,7.21,0,0,0,0-2.49c-.27-1.85-2.49-2.06-3.28-2.56-1.48-.95-2.72-1.54-2.92-2.72a2.25,2.25,0,0,1,.09-1.05,2.69,2.69,0,0,1,.68-.68c.86-.6,1.64-.38,3.66-.42.89,0,1.58-.08,2.83-.19s2.09-.18,2.34-.22.8-.1,1.66-.16a1.72,1.72,0,0,1,1.12.16,1.23,1.23,0,0,1,.46.49A2.67,2.67,0,0,1,136,199c-.21,1-1,1.54-1.78,2.27s-2.37,1.55-1.72,3.68"/><path class="cls-3" d="M123.73,81.3l21.08,6.23.6.34q8.39,8,16.78,16.07a.92.92,0,0,1,0,1.29l-9,10a.92.92,0,0,1-1.2.15L133.3,102.73a1,1,0,0,1-.3-.33L122.65,82.62A.93.93,0,0,1,123.73,81.3Z"/><path class="cls-3" d="M210.17,163.06a.37.37,0,0,1-.11-.43,33.49,33.49,0,0,0,2.19-8.34,33.84,33.84,0,0,0,0-8.43.37.37,0,0,1,.61-.33L233.53,163s.06.06.09.09a7.59,7.59,0,0,1-10.9,10.23l0,0Z"/><text class="cls-4" transform="matrix(0.59, -0.8, 0.8, 0.59, 30.95, 107.06)">A</text><text class="cls-4" transform="matrix(0.73, -0.68, 0.68, 0.73, 43.49, 90.6)">R</text><text class="cls-4" transform="translate(59.42 76.44) rotate(-34.46)">I</text><text class="cls-4" transform="translate(70.68 68.72) rotate(-25.82)">A</text><text class="cls-4" transform="matrix(0.97, -0.26, 0.26, 0.97, 89.36, 59.93)">N</text><text class="cls-4" transform="matrix(1, -0.07, 0.07, 1, 111.48, 54.3)">N</text><text class="cls-4" transform="translate(134.32 53.23) rotate(7.09)">E</text><text class="cls-4" transform="translate(155.07 56.44) rotate(14.83)"> </text><text class="cls-4" transform="translate(164.94 58.91) rotate(22.7)">X</text><text class="cls-4" transform="translate(184.8 67.86) rotate(31.34)">I</text><text class="cls-4" transform="translate(196.5 74.99) rotate(39.75)">A</text><text class="cls-4" transform="translate(212.24 88.35) rotate(50.32)">N</text><text class="cls-4" transform="translate(226.57 106.14) rotate(61.43)">G</text><text class="cls-4" transform="translate(237.03 126.87) rotate(69.47)"> </text><text class="cls-5" transform="matrix(0.64, 0.77, -0.77, 0.64, 20.77, 249.68)">M</text><text class="cls-5" transform="translate(38.54 269.74) rotate(40.28)">e</text><text class="cls-5" transform="matrix(0.85, 0.53, -0.53, 0.85, 53.94, 282.19)">d</text><text class="cls-5" transform="translate(70.82 291.95) rotate(25.06)">i</text><text class="cls-5" transform="translate(81.14 296.66) rotate(18.37)">a</text><text class="cls-5" transform="translate(99.86 302.27) rotate(11.41)"> </text><text class="cls-5" transform="translate(112.53 304.78) rotate(3.63)">D</text><text class="cls-5" transform="translate(136.51 305.61) rotate(-5.82)">e</text><text class="cls-5" transform="matrix(0.97, -0.24, 0.24, 0.97, 156.11, 303.12)">s</text><text class="cls-5" transform="translate(173.52 298.21) rotate(-20.45)">i</text><text class="cls-5" transform="translate(184.11 294.15) rotate(-27.1)">g</text><text class="cls-5" transform="matrix(0.81, -0.58, 0.58, 0.81, 201.51, 284.73)">n</text><text class="cls-5" transform="matrix(0.72, -0.7, 0.7, 0.72, 217.34, 272.84)">e</text><text class="cls-5" transform="translate(231.02 258.84) rotate(-51.3)">r</text><text class="cls-5" transform="matrix(0.54, -0.84, 0.84, 0.54, 239.46, 247.78)"> </text><circle class="cls-2" cx="4.79" cy="174.52" r="4.79"/></g></g></svg>