<svg xmlns="http://www.w3.org/2000/svg" viewBox="0 0 768.09 773.24"><defs><style>.cls-1{fill:#fe9898;}.cls-2,.cls-4,.cls-5{fill:#fff;}.cls-3{fill:#5a8fed;}.cls-4{font-size:24.45px;font-family:Cochin-Bold, Cochin;font-weight:700;}.cls-5{font-size:24.45px;font-family:Helvetica;}</style></defs><g id="Layer_2" data-name="Layer 2"><g id="logo"><text/><path class="cls-1" d="M215.35,182.54a6.13,6.13,0,0,0,.38-1.66h0a1.69,1.69,0,0,0-.23-.73q-5.15-8.9-10.31-17.78a1.75,1.75,0,0,1-.18-1.23c4.73-20.23,2.94-34.58,1.59-45-1.51-11.55-1.75-16.18-5.13-18.48-9.74-6.6-30.75,10.56-32.6,12.1l-.14.11c-1,.68-12,8.1-10.86,10.27.19.34.65.25,2.63,1.19,1.59.76,1.44.89,2.75,1.49s2.37.92,4,1.78a2.39,2.39,0,0,1,1.19,1.22,1,1,0,0,1,0,.79c-.23.4-.89.4-1.13.4-1.85,0-5-2.17-6.57-3.09a28.89,28.89,0,0,0-5.05-2c-3.48-1.22-6.5-1.42-13.51-1.43-7.56,0-11.35,0-13.8.22-4.84.5-12.22,1.17-20.53,5-3.1,1.42-11.46,5.26-17.43,10.72-.69.63-3.32,3.09-3.77,2.71-.3-.25.5-1.66.76-2.11,2.73-4.82,8.06-7.92,10.18-9.13,8.6-4.9,10-4.56,10.34-6.11.81-3.75-6.76-8.39-15.47-13.73a59.4,59.4,0,0,0-10.52-5,24.4,24.4,0,0,0-7.15-1.58,15.47,15.47,0,0,0-4.21.19c-2.25.6-4.92,3.29-7.09,14.94a116.09,116.09,0,0,0-1.06,30.78,92.87,92.87,0,0,0,1.47,10.16c.73,3.44,1,5.27,1.85,9,.63,2.77,1.36,3.35.46,6.64-1.08,3.9-1.43,5.29-2.73,11-.19.83-.84,3.71-1.35,7.42a117.92,117.92,0,0,0-.9,13.51,60,60,0,0,0-.08,6.79c.36,2,1.2,4.28,8.15,12.07,4.86,5.46,7.93,8.85,13.09,12.72A75.92,75.92,0,0,0,88.9,241a83.68,83.68,0,0,0,23.76,9.43c8.92,2.07,15.91,3.31,22,3.35A82.08,82.08,0,0,0,164,249.24a68.18,68.18,0,0,0,25.88-16.45,81.22,81.22,0,0,0,17.44-25.72,92.48,92.48,0,0,0,3.87-10l1.62-5.22c.16-.51.38-1.22.66-2.15.68-2.27,1-3.4,1.25-4.37.07-.27.24-1,.56-2.33C215.28,182.83,215.31,182.68,215.35,182.54Z"/><circle cx="93.63" cy="187.55" r="8.54"/><circle class="cls-2" cx="255.13" cy="174.45" r="4.79"/><path d="M150.43,184.57a32.85,32.85,0,0,1,3.54-6.15,27.53,27.53,0,0,1,4.54-5,27.2,27.2,0,0,1,5.78-3.78c3.48-1.77,6.43-3.26,8.58-2a4.1,4.1,0,0,1,1.57,1.8,3.15,3.15,0,0,1-.06,1.41,4.47,4.47,0,0,1-2.52,2.46,18.61,18.61,0,0,1-4,1.31c-1.9.5-2,.43-2.87.74a20.34,20.34,0,0,0-3.2,1.5,31.38,31.38,0,0,0-3.63,2.56c-1.11.86-2.54,2-4.2,3.41L151.36,185a.53.53,0,0,1-.66.17A.53.53,0,0,1,150.43,184.57Z"/><path d="M132.52,205c-.16-.51.26.77.38,1s3.33,6,8,6.06c4.92,0,9.38-6.34,8.79-9.7-.1-.57-.6-2.43.3-3.31a1.82,1.82,0,0,1,.87-.46,2.73,2.73,0,0,1,2.19.72c1.91,1.71,0,6.67-.12,7a14.32,14.32,0,0,1-4.19,5.58c-1.69,1.51-3.3,2.93-5.88,3.43a10.76,10.76,0,0,1-7.58-1.54,11.47,11.47,0,0,1-3.85-3.93,12.15,12.15,0,0,1-6.11,7.4c-5.4,2.56-10.67-.56-12-1.32a10.71,10.71,0,0,1-4.6-4.87,6.24,6.24,0,0,1-.42-4.34,2.52,2.52,0,0,1,1.21-1.66,1.81,1.81,0,0,1,1.84.6,8.35,8.35,0,0,1,.72,3c.49,3.33,3.81,5.54,7.1,6a8.89,8.89,0,0,0,8.45-3.51,10.26,10.26,0,0,0,1.51-3.81,7.21,7.21,0,0,0,0-2.49c-.27-1.86-2.49-2.06-3.28-2.56-1.48-1-2.72-1.54-2.92-2.73a2.28,2.28,0,0,1,.09-1.05,2.86,2.86,0,0,1,.68-.67c.86-.6,1.64-.38,3.66-.42.89,0,1.58-.08,2.83-.19s2.09-.18,2.34-.22.8-.1,1.66-.17a1.73,1.73,0,0,1,1.12.17,1.23,1.23,0,0,1,.46.49A2.65,2.65,0,0,1,136,199c-.21,1-1,1.54-1.78,2.27s-2.37,1.55-1.72,3.68"/><path class="cls-3" d="M123.73,81.33l21.08,6.22.6.35L162.19,104a.92.92,0,0,1,0,1.29l-9,10a.93.93,0,0,1-1.2.15L133.3,102.76a.9.9,0,0,1-.3-.34L122.65,82.65A.93.93,0,0,1,123.73,81.33Z"/><path class="cls-3" d="M210.17,163.09a.37.37,0,0,1-.11-.43,33.46,33.46,0,0,0,2.19-8.35,33.85,33.85,0,0,0,0-8.43.37.37,0,0,1,.61-.33l20.64,17.5a.43.43,0,0,1,.09.1,7.59,7.59,0,0,1-10.9,10.23l0,0Z"/><text class="cls-4" transform="matrix(0.59, -0.8, 0.8, 0.59, 30.94, 107.06)">A</text><text class="cls-4" transform="matrix(0.73, -0.68, 0.68, 0.73, 43.48, 90.6)">R</text><text class="cls-4" transform="translate(59.41 76.44) rotate(-34.46)">I</text><text class="cls-4" transform="translate(70.67 68.72) rotate(-25.82)">A</text><text class="cls-4" transform="translate(89.35 59.93) rotate(-15.09)">N</text><text class="cls-4" transform="translate(111.46 54.3) rotate(-3.78)">N</text><text class="cls-4" transform="matrix(0.99, 0.12, -0.12, 0.99, 134.3, 53.23)">E</text><text class="cls-4" transform="translate(155.06 56.44) rotate(14.83)"> </text><text class="cls-4" transform="translate(164.92 58.91) rotate(22.7)">X</text><text class="cls-4" transform="matrix(0.85, 0.52, -0.52, 0.85, 184.79, 67.86)">I</text><text class="cls-4" transform="matrix(0.77, 0.64, -0.64, 0.77, 196.49, 74.99)">A</text><text class="cls-4" transform="matrix(0.64, 0.77, -0.77, 0.64, 212.22, 88.35)">N</text><text class="cls-4" transform="translate(226.56 106.14) rotate(61.43)">G</text><text class="cls-4" transform="matrix(0.35, 0.94, -0.94, 0.35, 237.01, 126.87)"> </text><text class="cls-5" transform="matrix(0.64, 0.77, -0.77, 0.64, 20.8, 249.67)">M</text><text class="cls-5" transform="translate(38.56 269.73) rotate(40.28)">e</text><text class="cls-5" transform="matrix(0.85, 0.53, -0.53, 0.85, 53.96, 282.18)">d</text><text class="cls-5" transform="matrix(0.91, 0.42, -0.42, 0.91, 70.85, 291.94)">i</text><text class="cls-5" transform="translate(81.17 296.65) rotate(18.37)">a</text><text class="cls-5" transform="translate(99.89 302.26) rotate(11.41)"> </text><text class="cls-5" transform="translate(112.56 304.77) rotate(3.63)">D</text><text class="cls-5" transform="translate(136.53 305.6) rotate(-5.82)">e</text><text class="cls-5" transform="translate(156.13 303.11) rotate(-14.09)">s</text><text class="cls-5" transform="matrix(0.94, -0.35, 0.35, 0.94, 173.54, 298.2)">i</text><text class="cls-5" transform="translate(184.13 294.14) rotate(-27.1)">g</text><text class="cls-5" transform="matrix(0.81, -0.58, 0.58, 0.81, 201.53, 284.72)">n</text><text class="cls-5" transform="matrix(0.72, -0.7, 0.7, 0.72, 217.36, 272.83)">e</text><text class="cls-5" transform="translate(231.04 258.83) rotate(-51.3)">r</text><text class="cls-5" transform="matrix(0.54, -0.84, 0.84, 0.54, 239.49, 247.77)"> </text><circle class="cls-2" cx="4.79" cy="174.54" r="4.79"/></g></g></svg>