<svg id="Layer_1" data-name="Layer 1" xmlns="http://www.w3.org/2000/svg" viewBox="0 0 826.88 279.28">
	<defs>
		<style>
			.cls-1{fill:#fe9898;}
            .cls-2,.cls-4{fill:#fff;}
            .cls-3{fill:#5a8fed;}
            .cls-4{font-size:60px;font-family:Cochin;font-weight:bold;}
		</style>
	</defs>
	<path class="cls-1" d="M313.5,238.4a9.72,9.72,0,0,0,.61-2.69h0a2.58,2.58,0,0,0-.36-1.17q-8.34-14.4-16.69-28.79a2.76,2.76,0,0,1-.29-2c7.66-32.75,4.76-56,2.56-72.85-2.43-18.7-2.82-26.2-8.3-29.92-15.77-10.69-49.78,17.09-52.77,19.59l-.23.17c-1.65,1.1-19.49,13.12-17.58,16.64.3.55,1,.4,4.25,1.92,2.58,1.23,2.34,1.43,4.46,2.42s3.84,1.48,6.41,2.87a3.84,3.84,0,0,1,1.92,2,1.55,1.55,0,0,1,0,1.28c-.37.64-1.43.64-1.83.64-3,0-8.08-3.51-10.62-5-1.8-1.06-3.93-1.81-8.19-3.3-5.63-2-10.51-2.3-21.86-2.32-12.25,0-18.38-.05-22.36.36-7.82.82-19.77,1.9-33.22,8.07-5,2.3-18.56,8.5-28.22,17.34-1.13,1-5.38,5-6.1,4.4-.49-.41.8-2.69,1.22-3.42,4.42-7.8,13-12.82,16.49-14.78,13.91-7.93,16.19-7.38,16.73-9.9,1.32-6.06-10.94-13.58-25-22.23a96.53,96.53,0,0,0-17-8,39.45,39.45,0,0,0-11.57-2.56,25.29,25.29,0,0,0-6.81.3c-3.65,1-8,5.33-11.48,24.19a187.52,187.52,0,0,0-1.71,49.83,147.68,147.68,0,0,0,2.37,16.45c1.18,5.57,1.63,8.53,3,14.58,1,4.47,2.2,5.42.73,10.75-1.73,6.31-2.31,8.56-4.41,17.78-.31,1.34-1.35,6-2.18,12-1,7-1.16,12.28-1.47,21.87-.21,6.6-.32,9.91-.12,11,.59,3.19,2,6.93,13.19,19.55,7.87,8.83,12.84,14.33,21.2,20.58a121.1,121.1,0,0,0,10.56,7,135.9,135.9,0,0,0,38.48,15.27c14.43,3.34,25.74,5.36,35.66,5.42,17.14.11,30.76-1.68,47.4-7.37,22-7.55,35.76-20.66,41.9-26.63,16.38-16,24.18-32.72,28.23-41.64a147.85,147.85,0,0,0,6.27-16.25l2.63-8.44c.26-.83.61-2,1.06-3.49,1.1-3.66,1.65-5.5,2-7.06.1-.44.39-1.66.9-3.78C313.39,238.86,313.44,238.63,313.5,238.4Z" transform="translate(-63.72 -74.48)" />
	<circle cx="52.71" cy="172.03" r="13.83" />
	<path class="cls-2" d="M232.09,217.16" transform="translate(-63.72 -74.48)" />
	<path d="M208.4,241.69a53.73,53.73,0,0,1,5.73-10,42.76,42.76,0,0,1,16.72-14.3c5.63-2.86,10.41-5.28,13.87-3.27a6.6,6.6,0,0,1,2.55,2.91,4.94,4.94,0,0,1-.1,2.29c-.59,2.07-2.49,3.12-4.07,4a29.71,29.71,0,0,1-6.46,2.12c-3.08.8-3.19.7-4.65,1.2a32.12,32.12,0,0,0-5.18,2.43,49.15,49.15,0,0,0-5.88,4.15c-1.79,1.39-4.11,3.24-6.8,5.52l-4.22,3.62a.84.84,0,0,1-1.51-.69Z" transform="translate(-63.72 -74.48)" />
	<path d="M179.41,274.69c-.27-.83.41,1.25.61,1.7s5.39,9.78,13,9.81c8,0,15.19-10.26,14.23-15.69-.16-.94-1-3.94.49-5.38a3,3,0,0,1,1.41-.73,4.4,4.4,0,0,1,3.54,1.16c3.09,2.77,0,10.8-.19,11.3a23.18,23.18,0,0,1-6.77,9c-2.75,2.43-5.35,4.75-9.53,5.56A17.51,17.51,0,0,1,183.9,289a18.66,18.66,0,0,1-6.23-6.35c-.38,1.31-2.66,8.53-9.89,12-8.74,4.15-17.27-.9-19.36-2.14a17.32,17.32,0,0,1-7.45-7.88,10.16,10.16,0,0,1-.68-7,4.13,4.13,0,0,1,2-2.69,2.92,2.92,0,0,1,3,1c.49.65.76,2.11,1.17,4.9.79,5.39,6.16,9,11.48,9.77a14.43,14.43,0,0,0,13.68-5.68,16.66,16.66,0,0,0,2.45-6.17,11.23,11.23,0,0,0,.06-4c-.44-3-4-3.34-5.31-4.15-2.41-1.53-4.4-2.5-4.73-4.41a3.58,3.58,0,0,1,.14-1.7,4.69,4.69,0,0,1,1.1-1.1c1.39-1,2.66-.6,5.93-.67,1.44,0,2.55-.13,4.58-.31,2.25-.2,3.38-.29,3.79-.36.59-.11,1.29-.16,2.69-.27a2.82,2.82,0,0,1,1.81.27,2.1,2.1,0,0,1,.75.79,4.35,4.35,0,0,1,.25,2.36c-.33,1.67-1.62,2.5-2.88,3.69-1.07,1-3.83,2.5-2.78,5.95" transform="translate(-63.72 -74.48)" />
	<path class="cls-3" d="M165.18,74.54l34.13,10.08,1,.56,27.16,26a1.49,1.49,0,0,1,.08,2.08l-14.64,16.16a1.51,1.51,0,0,1-2,.24l-30.25-20.44a1.62,1.62,0,0,1-.49-.55q-8.37-16-16.75-32A1.5,1.5,0,0,1,165.18,74.54Z" transform="translate(-63.72 -74.48)" />
	<path class="cls-3" d="M305.11,206.91a.62.62,0,0,1-.17-.7,54.51,54.51,0,0,0,3.59-27.16.6.6,0,0,1,1-.53l33.42,28.33a.66.66,0,0,1,.14.15,12.28,12.28,0,0,1-17.64,16.56l-.05,0Z" transform="translate(-63.72 -74.48)" />
	<text class="cls-4" transform="translate(308.48 172.93)">
		ARIANNE XIANG
	</text>
</svg>
