<svg id="Layer_1" data-name="Layer 1" xmlns="http://www.w3.org/2000/svg" viewBox="0 0 255.06 296.39">
    <defs>
        <style>
            .cls-1 {
                fill: #f29698;
            }

            .cls-2,
            .cls-4 {
                fill: #fff;
            }

            .cls-3 {
                fill: #6389c6;
            }

            .cls-4 {
                font-size: 24.45px;
                font-family: Cochin-Bold, Cochin;
                font-weight: 700;
            }
        </style>
    </defs>
    <path class="cls-1"
        d="M200.84,140.14H58.92A90.85,90.85,0,0,1,57.45,130a115.71,115.71,0,0,1,1.06-30.79c2.16-11.65,4.83-14.33,7.09-14.93a15.47,15.47,0,0,1,4.21-.19A24.34,24.34,0,0,1,77,85.65a60.84,60.84,0,0,1,10.53,4.94c8.71,5.35,16.28,10,15.46,13.74-.33,1.55-1.74,1.21-10.33,6.11-2.13,1.21-7.46,4.31-10.19,9.13-.25.45-1,1.86-.75,2.11.45.38,3.07-2.08,3.77-2.72,6-5.46,14.32-9.29,17.43-10.71,8.31-3.81,15.69-4.48,20.52-5,2.46-.26,6.24-.24,13.81-.23,7,0,10,.22,13.5,1.44a30.12,30.12,0,0,1,5.06,2c1.57.93,4.72,3.1,6.56,3.1.25,0,.91,0,1.13-.4a1,1,0,0,0,0-.79,2.46,2.46,0,0,0-1.19-1.23c-1.59-.85-2.72-1.19-4-1.77s-1.16-.73-2.76-1.49c-2-.94-2.43-.85-2.62-1.19-1.18-2.17,9.84-9.6,10.86-10.28l.14-.1c1.85-1.54,22.85-18.71,32.59-12.1,3.39,2.29,3.63,6.93,5.13,18.48C202.91,108.53,204.57,121.79,200.84,140.14Z"
        transform="translate(0 17.38)" />
    <path class="cls-2" d="M160.1,152" transform="translate(0 17.38)" />
    <path class="cls-3"
        d="M118.77,63.93l21.08,6.22.6.35,16.78,16.07a.92.92,0,0,1,0,1.29l-9,10A.93.93,0,0,1,147,98L128.34,85.36A.89.89,0,0,1,128,85L117.69,65.24A.92.92,0,0,1,118.77,63.93Z"
        transform="translate(0 17.38)" />
    <path class="cls-3" d="M206.71,140.14c.23-1,.43-2.08.58-3.23a33.31,33.31,0,0,0,0-8.43.38.38,0,0,1,.62-.33l14.14,12Z"
        transform="translate(0 17.38)" /><text class="cls-4"
        transform="matrix(0.59, -0.8, 0.8, 0.59, 25.99, 107.05)">A</text><text class="cls-4"
        transform="matrix(0.73, -0.68, 0.68, 0.73, 38.53, 90.6)">R</text><text class="cls-4"
        transform="translate(54.46 76.43) rotate(-34.46)">I</text><text class="cls-4"
        transform="translate(65.72 68.72) rotate(-25.82)">A</text><text class="cls-4"
        transform="matrix(0.97, -0.26, 0.26, 0.97, 84.4, 59.93)">N</text><text class="cls-4"
        transform="matrix(1, -0.07, 0.07, 1, 106.52, 54.3)">N</text><text class="cls-4"
        transform="translate(129.36 53.23) rotate(7.09)">E</text><text class="cls-4"
        transform="translate(150.11 56.44) rotate(14.83)"> </text><text class="cls-4"
        transform="translate(159.97 58.91) rotate(22.7)">X</text><text class="cls-4"
        transform="translate(179.84 67.86) rotate(31.34)">I</text><text class="cls-4"
        transform="translate(191.54 74.99) rotate(39.75)">A</text><text class="cls-4"
        transform="translate(207.28 88.35) rotate(50.32)">N</text><text class="cls-4"
        transform="translate(221.61 106.14) rotate(61.43)">G</text><text class="cls-4"
        transform="translate(232.07 126.87) rotate(69.47)"> </text>
</svg>